<svg width="17" height="17" viewBox="0 0 17 17" fill="none" xmlns="http://www.w3.org/2000/svg">
<path d="M0 17L1.19496 12.6345C0.457582 11.3567 0.0701249 9.90817 0.0708332 8.42279C0.0729582 3.77896 3.85191 0 8.49502 0C10.7482 0.000708333 12.8633 0.878333 14.4542 2.47067C16.0444 4.063 16.9199 6.1795 16.9192 8.43058C16.9171 13.0751 13.1381 16.8541 8.49502 16.8541C7.08544 16.8534 5.6964 16.4999 4.46603 15.8284L0 17ZM4.67286 14.3034C5.86003 15.0082 6.99336 15.4303 8.49219 15.431C12.3512 15.431 15.4948 12.2903 15.4969 8.42917C15.4983 4.56025 12.3696 1.42375 8.49786 1.42233C4.63603 1.42233 1.49458 4.56308 1.49316 8.4235C1.49246 9.99954 1.95429 11.1796 2.72991 12.4142L2.02229 14.9982L4.67286 14.3034ZM12.7386 10.433C12.6862 10.3452 12.546 10.2928 12.3349 10.1872C12.1245 10.0817 11.0896 9.57242 10.8963 9.50229C10.7036 9.43217 10.5634 9.39675 10.4224 9.60783C10.2821 9.81821 9.87839 10.2928 9.75585 10.433C9.63331 10.5733 9.51006 10.591 9.29969 10.4855C9.08931 10.3799 8.41073 10.1582 7.60677 9.44067C6.98132 8.8825 6.55844 8.19329 6.4359 7.98221C6.31336 7.77183 6.42315 7.65779 6.52799 7.55296C6.6229 7.45875 6.73836 7.30717 6.8439 7.18392C6.95086 7.06208 6.98557 6.97425 7.0564 6.83329C7.12653 6.69304 7.09182 6.56979 7.03869 6.46425C6.98557 6.35942 6.56482 5.32312 6.38986 4.90167C6.21844 4.49154 6.0449 4.54679 5.91599 4.54042L5.51224 4.53333C5.37199 4.53333 5.14391 4.58575 4.95124 4.79683C4.75857 5.00792 4.21457 5.5165 4.21457 6.55279C4.21457 7.58908 4.96895 8.58996 5.07378 8.73021C5.17932 8.87046 6.55774 10.9969 8.66927 11.9085C9.17148 12.1252 9.5639 12.2549 9.86919 12.3519C10.3735 12.512 10.8325 12.4893 11.1952 12.4355C11.5996 12.3753 12.4404 11.9262 12.6161 11.4346C12.7918 10.9423 12.7918 10.5209 12.7386 10.433Z" fill="white"/>
</svg>
